HIERARCHY
ROOT hip
{
  OFFSET 0.0 0.0 0.0
  CHANNELS 6 Xposition Yposition Zposition Zrotation Yrotation Xrotation
  JOINT abdomen
  {
    OFFSET 0.0 20.6881 -0.73152
    CHANNELS 3 Zrotation Xrotation Yrotation
    JOINT chest
    {
      OFFSET 0.0 11.7043 -0.48768
      CHANNELS 3 Zrotation Xrotation Yrotation
      JOINT neck
      {
        OFFSET 0.0 22.1894 -2.19456
        CHANNELS 3 Zrotation Xrotation Yrotation
        JOINT head
        {
          OFFSET -0.24384 7.07133 1.2192
          CHANNELS 3 Zrotation Xrotation Yrotation
          JOINT leftEye
          {
            OFFSET 4.14528 8.04674 8.04672
            CHANNELS 3 Zrotation Xrotation Yrotation
            End Site
            {
              OFFSET 1.0 0.0 0.0
            }
          }
          JOINT rightEye
          {
            OFFSET -3.6576 8.04674 8.04672
            CHANNELS 3 Zrotation Xrotation Yrotation
            End Site
            {
              OFFSET 1.0 0.0 0.0
            }
          }
        }
      }
      JOINT rCollar
      {
        OFFSET -2.68224 19.2634 -4.8768
        CHANNELS 3 Zrotation Xrotation Yrotation
        JOINT rShldr
        {
          OFFSET -8.77824 -1.95073 1.46304
          CHANNELS 3 Zrotation Xrotation Yrotation
          JOINT rForeArm
          {
            OFFSET -28.1742 -1.7115 0.48768
            CHANNELS 3 Zrotation Xrotation Yrotation
            JOINT rHand
            {
              OFFSET -22.5879 0.773209 7.07136
              CHANNELS 3 Zrotation Xrotation Yrotation
              JOINT rThumb1
              {
                OFFSET -1.2192 -0.487915 3.41376
                CHANNELS 3 Zrotation Xrotation Yrotation
                JOINT rThumb2
                {
                  OFFSET -3.37035 -0.52449 3.41376
                  CHANNELS 3 Zrotation Xrotation Yrotation
                  End Site
                  {
                    OFFSET -1.78271 -1.18214 1.43049
                  }
                }
              }
              JOINT rIndex1
              {
                OFFSET -7.75947 0.938293 5.60832
                CHANNELS 3 Zrotation Xrotation Yrotation
                JOINT rIndex2
                {
                  OFFSET -2.54057 -0.884171 1.56538
                  CHANNELS 3 Zrotation Xrotation Yrotation
                  End Site
                  {
                    OFFSET -1.62519 -0.234802 1.16502
                  }
                }
              }
              JOINT rMid1
              {
                OFFSET -8.24714 1.18213 3.41376
                CHANNELS 3 Zrotation Xrotation Yrotation
                JOINT rMid2
                {
                  OFFSET -3.10165 -0.590103 1.0647
                  CHANNELS 3 Zrotation Xrotation Yrotation
                  End Site
                  {
                    OFFSET -2.48547 -0.328903 0.83742
                  }
                }
              }
              JOINT rRing1
              {
                OFFSET -8.82822 0.546677 1.51678
                CHANNELS 3 Zrotation Xrotation Yrotation
                JOINT rRing2
                {
                  OFFSET -2.60934 -0.819778 -0.0198488
                  CHANNELS 3 Zrotation Xrotation Yrotation
                  End Site
                  {
                    OFFSET -2.33842 -0.294052 0.168128
                  }
                }
              }
              JOINT rPinky1
              {
                OFFSET -8.27202 -0.0477905 -0.4584
                CHANNELS 3 Zrotation Xrotation Yrotation
                JOINT rPinky2
                {
                  OFFSET -1.82734 -0.647385 -0.700984
                  CHANNELS 3 Zrotation Xrotation Yrotation
                  End Site
                  {
                    OFFSET -1.69225 -0.51767 -0.607171
                  }
                }
              }
            }
          }
        }
      }
      JOINT lCollar
      {
        OFFSET 2.68224 19.2634 -4.8768
        CHANNELS 3 Zrotation Xrotation Yrotation
        JOINT lShldr
        {
          OFFSET 8.77824 -1.95073 1.46304
          CHANNELS 3 Zrotation Xrotation Yrotation
          JOINT lForeArm
          {
            OFFSET 28.1742 -1.7115 0.48768
            CHANNELS 3 Zrotation Xrotation Yrotation
            JOINT lHand
            {
              OFFSET 22.5879 0.773209 7.07136
              CHANNELS 3 Zrotation Xrotation Yrotation
              JOINT lThumb1
              {
                OFFSET 1.2192 -0.487915 3.41376
                CHANNELS 3 Zrotation Xrotation Yrotation
                JOINT lThumb2
                {
                  OFFSET 3.37035 -0.52449 3.41376
                  CHANNELS 3 Zrotation Xrotation Yrotation
                  End Site
                  {
                    OFFSET 1.78271 -1.18214 1.43049
                  }
                }
              }
              JOINT lIndex1
              {
                OFFSET 7.75947 0.938293 5.60832
                CHANNELS 3 Zrotation Xrotation Yrotation
                JOINT lIndex2
                {
                  OFFSET 2.54057 -0.884171 1.56538
                  CHANNELS 3 Zrotation Xrotation Yrotation
                  End Site
                  {
                    OFFSET 1.62519 -0.234802 1.16502
                  }
                }
              }
              JOINT lMid1
              {
                OFFSET 8.24714 1.18213 3.41376
                CHANNELS 3 Zrotation Xrotation Yrotation
                JOINT lMid2
                {
                  OFFSET 3.10165 -0.590103 1.0647
                  CHANNELS 3 Zrotation Xrotation Yrotation
                  End Site
                  {
                    OFFSET 2.48547 -0.328903 0.83742
                  }
                }
              }
              JOINT lRing1
              {
                OFFSET 8.82822 0.546677 1.51678
                CHANNELS 3 Zrotation Xrotation Yrotation
                JOINT lRing2
                {
                  OFFSET 2.60934 -0.819778 -0.0198488
                  CHANNELS 3 Zrotation Xrotation Yrotation
                  End Site
                  {
                    OFFSET 2.33842 -0.294052 0.168128
                  }
                }
              }
              JOINT lPinky1
              {
                OFFSET 8.27202 -0.0477905 -0.4584
                CHANNELS 3 Zrotation Xrotation Yrotation
                JOINT lPinky2
                {
                  OFFSET 1.82734 -0.647385 -0.700984
                  CHANNELS 3 Zrotation Xrotation Yrotation
                  End Site
                  {
                    OFFSET 1.69225 -0.51767 -0.607171
                  }
                }
              }
            }
          }
        }
      }
    }
  }
  JOINT rButtock
  {
    OFFSET -8.77824 4.35084 1.2192
    CHANNELS 3 Zrotation Xrotation Yrotation
    JOINT rThigh
    {
      OFFSET 0.0 -1.70687 -2.19456
      CHANNELS 3 Zrotation Xrotation Yrotation
      JOINT rShin
      {
        OFFSET 0.0 -36.8199 0.73152
        CHANNELS 3 Zrotation Xrotation Yrotation
        JOINT rFoot
        {
          OFFSET 0.73152 -45.1104 -5.12064
          CHANNELS 3 Zrotation Xrotation Yrotation
          End Site
          {
            OFFSET -1.1221 -3.69964 12.103
          }
        }
      }
    }
  }
  JOINT lButtock
  {
    OFFSET 8.77824 4.35084 1.2192
    CHANNELS 3 Zrotation Xrotation Yrotation
    JOINT lThigh
    {
      OFFSET 0.0 -1.70687 -2.19456
      CHANNELS 3 Zrotation Xrotation Yrotation
      JOINT lShin
      {
        OFFSET 0.0 -36.8199 0.73152
        CHANNELS 3 Zrotation Xrotation Yrotation
        JOINT lFoot
        {
          OFFSET -0.73152 -45.1104 -5.12064
          CHANNELS 3 Zrotation Xrotation Yrotation
          End Site
          {
            OFFSET 1.1221 -3.69964 12.103
          }
        }
      }
    }
  }
}
MOTION
Frames: 5
Frame Time: 0.00833333
-3.4635999999999996 87.6208 47.479 -2.2741 6.8996 0.4403 5.61899 6.61814 -1.97571 2.53917 -5.39488 -0.362924 3.07173 -3.10835 1.17152 -5.93834 -16.1848 0.479329 -0.0 0.0 0.0 -0.0 0.0 0.0 0.0 0.0 0.0 0.0 0.0 0.0 0.0 0.0 0.0 -0.2566 -14.2741 -2.04909 -1.96807e-10 1.63721e-09 -8.63775e-11 -3.44804e-10 2.8401e-09 -1.49899e-10 -1.96808e-10 1.63722e-09 -8.63807e-11 7.73091 5.47488 0.417314 -1.96809e-10 1.63722e-09 -8.63775e-11 2.90554 0.965183 0.102902 -1.96803e-10 1.63722e-09 -8.63767e-11 10.2786 0.731801 0.0259123 -1.96809e-10 1.63722e-09 -8.63648e-11 2.22167 -0.733487 -0.20892 0.0 0.0 0.0 0.0 0.0 0.0 0.0 0.0 0.0 0.274177 -14.7417 2.11925 4.2014e-10 1.02918e-09 5.69892e-11 7.2948e-10 1.78257e-09 1.04605e-10 4.20134e-10 1.02918e-09 5.70051e-11 -7.73091 5.47488 -0.417314 4.2014e-10 1.02917e-09 5.69924e-11 -2.90554 0.965183 -0.102902 4.20133e-10 1.02917e-09 5.6986e-11 -10.2786 0.731801 -0.0259123 4.20146e-10 1.02917e-09 5.69796e-11 -2.22167 -0.733487 0.20892 -2.03217e-16 0.0 -3.88251e-19 3.01147 -8.4949 -4.42719 -0.142745 26.8564 0.371929 -1.67114 0.92617 -18.8339 2.03217e-16 0.0 3.88251e-19 9.05371 -28.0141 3.76318 0.280398 36.7049 -0.543771 1.97643 -2.31353 11.2336
-3.5418000000000003 87.1715 48.2727 -2.5468 6.7775 0.3045 5.96281 6.79398 -1.95161 2.47427 -5.39887 -0.354051 3.10943 -3.10956 1.21559 -6.0919 -16.159 0.534479 -0.0 0.0 0.0 -0.0 0.0 0.0 0.0 0.0 0.0 0.0 0.0 0.0 0.0 0.0 0.0 -0.269727 -14.619 -2.10087 5.67865e-11 7.94329e-10 -2.00774e-10 9.61967e-11 1.37669e-09 -3.45569e-10 5.67847e-11 7.94332e-10 -2.00778e-10 7.73091 5.47488 0.417314 5.67835e-11 7.94334e-10 -2.00775e-10 2.90554 0.965183 0.102902 5.67906e-11 7.94334e-10 -2.00773e-10 10.2786 0.731801 0.0259123 5.67846e-11 7.94333e-10 -2.00761e-10 2.22167 -0.733487 -0.20892 0.0 0.0 0.0 0.0 0.0 0.0 0.0 0.0 0.0 0.273295 -14.7143 2.11518 6.5223e-10 1.17889e-09 1.64398e-12 1.13089e-09 2.04182e-09 1.05648e-11 6.52225e-10 1.17889e-09 1.65806e-12 -7.73091 5.47488 -0.417314 6.5223e-10 1.17889e-09 1.64636e-12 -2.90554 0.965183 -0.102902 6.52224e-10 1.17889e-09 1.64007e-12 -10.2786 0.731801 -0.0259123 6.52236e-10 1.17889e-09 1.63341e-12 -2.22167 -0.733487 0.20892 -2.03217e-16 0.0 -3.88251e-19 3.58238 -7.20715 -4.45836 -0.131492 25.8799 0.376516 -2.19626 -0.527583 -19.4001 2.03217e-16 0.0 3.88251e-19 9.25022 -28.8665 3.31469 0.263981 35.6761 -0.507591 1.97671 -2.16961 11.5024
-3.6233199999999997 86.7305 49.0628 -2.8419 6.6318 0.241 6.27205 6.92843 -1.91012 2.43957 -5.35776 -0.34029 3.19504 -3.14095 1.27754 -6.28294 -16.1577 0.601196 -0.0 0.0 0.0 -0.0 0.0 0.0 0.0 0.0 0.0 0.0 0.0 0.0 0.0 0.0 0.0 -0.28086 -14.9111 -2.14478 4.2012e-10 -5.87442e-10 -2.76099e-10 7.28066e-10 -1.02125e-09 -4.72748e-10 4.20118e-10 -5.87438e-10 -2.76105e-10 7.73091 5.47488 0.417314 4.20117e-10 -5.87436e-10 -2.76101e-10 2.90554 0.965183 0.102902 4.20125e-10 -5.87437e-10 -2.76097e-10 10.2786 0.731801 0.0259123 4.20117e-10 -5.87437e-10 -2.76086e-10 2.22167 -0.733487 -0.20892 0.0 0.0 0.0 0.0 0.0 0.0 0.0 0.0 0.0 0.269484 -14.6079 2.09924 8.41503e-10 1.14834e-09 -9.00154e-11 1.45776e-09 1.98897e-09 -1.47317e-10 8.41502e-10 1.14834e-09 -9.00037e-11 -7.73091 5.47488 -0.417314 8.41505e-10 1.14834e-09 -9.00143e-11 -2.90554 0.965183 -0.102902 8.415e-10 1.14834e-09 -9.00198e-11 -10.2786 0.731801 -0.0259123 8.41511e-10 1.14834e-09 -9.00272e-11 -2.22167 -0.733487 0.20892 -2.03217e-16 0.0 -3.88251e-19 4.16233 -5.91024 -4.50299 -0.119899 24.7921 0.379358 -2.78924 -2.04137 -20.1109 2.03217e-16 0.0 3.88251e-19 9.41257 -29.7177 2.80026 0.24777 34.5771 -0.468975 1.96025 -1.96645 11.7586
-3.71807 86.2946 49.8471 -3.1968 6.4876 0.2719 6.57983 6.9862 -1.85375 2.4219 -5.28707 -0.323188 3.30875 -3.15539 1.34558 -6.48065 -16.1678 0.670443 -0.0 0.0 0.0 -0.0 0.0 0.0 0.0 0.0 0.0 0.0 0.0 0.0 0.0 0.0 0.0 -0.289164 -15.1272 -2.17733 7.66884e-10 -1.97953e-09 -3.27406e-10 1.33125e-09 -3.43695e-09 -5.58627e-10 7.66882e-10 -1.97953e-09 -3.27414e-10 7.73091 5.47488 0.417314 7.66881e-10 -1.97953e-09 -3.27408e-10 2.90554 0.965183 0.102902 7.66891e-10 -1.97953e-09 -3.27404e-10 10.2786 0.731801 0.0259123 7.66881e-10 -1.97953e-09 -3.27393e-10 2.22167 -0.733487 -0.20892 0.0 0.0 0.0 0.0 0.0 0.0 0.0 0.0 0.0 0.26214 -14.4121 2.06987 9.68753e-10 1.02362e-09 -1.76985e-10 1.67712e-09 1.77298e-09 -2.97741e-10 9.68756e-10 1.02363e-09 -1.76976e-10 -7.73091 5.47488 -0.417314 9.68757e-10 1.02363e-09 -1.76985e-10 -2.90554 0.965183 -0.102902 9.68753e-10 1.02363e-09 -1.7699e-10 -10.2786 0.731801 -0.0259123 9.68762e-10 1.02363e-09 -1.76998e-10 -2.22167 -0.733487 0.20892 -2.03217e-16 0.0 -3.88251e-19 4.76238 -4.61252 -4.52367 -0.108066 23.6155 0.379703 -3.40399 -3.48986 -20.873 2.03217e-16 0.0 3.88251e-19 9.57152 -30.5795 2.28211 0.232617 33.4679 -0.430037 1.93644 -1.73391 12.0268
-3.82573 85.8635 50.6322 -3.6185 6.3564 0.3928 6.91956 6.93198 -1.78504 2.40812 -5.20235 -0.304295 3.43049 -3.10576 1.40787 -6.65426 -16.176 0.733163 -0.0 0.0 0.0 -0.0 0.0 0.0 0.0 0.0 0.0 0.0 0.0 0.0 0.0 0.0 0.0 -0.293772 -15.2442 -2.195 9.7077e-10 -2.85338e-09 -3.69749e-10 1.68621e-09 -4.95361e-09 -6.30397e-10 9.70769e-10 -2.85338e-09 -3.69759e-10 7.73091 5.47488 0.417314 9.70768e-10 -2.85338e-09 -3.69752e-10 2.90554 0.965183 0.102902 9.70779e-10 -2.85338e-09 -3.69747e-10 10.2786 0.731801 0.0259123 9.70767e-10 -2.85338e-09 -3.69736e-10 2.22167 -0.733487 -0.20892 0.0 0.0 0.0 0.0 0.0 0.0 0.0 0.0 0.0 0.250823 -14.1166 2.02553 1.01477e-09 8.90857e-10 -2.18262e-10 1.75605e-09 1.5428e-09 -3.6941e-10 1.01478e-09 8.90864e-10 -2.18253e-10 -7.73091 5.47488 -0.417314 1.01478e-09 8.90864e-10 -2.18262e-10 -2.90554 0.965183 -0.102902 1.01477e-09 8.90863e-10 -2.18266e-10 -10.2786 0.731801 -0.0259123 1.01478e-09 8.90864e-10 -2.18275e-10 -2.22167 -0.733487 0.20892 -2.03217e-16 0.0 -3.88251e-19 5.39015 -3.32209 -4.4832 -0.0961858 22.3728 0.376819 -3.97831 -4.75361 -21.5879 2.03217e-16 0.0 3.88251e-19 9.76162 -31.4644 1.82439 0.218999 32.4086 -0.392639 1.91488 -1.50181 12.3316
